# xmcd CD database file
#
# Track frame offsets:
#	150
#	21948
#	43620
#	73991
#	97487
#	123062
#	142588
#	159209
#	175918
#	203792
#	224083
#	247070
#
# Disc length: 3598 seconds
#
# Revision: 0
# Processed by: cddbd v1.5.1PL2 Copyright (c) Steve Scherf et al.
# Submitted via: CDex 1.70beta1
#
DISCID=b10e0c0c
DTITLE=Rob Drake - Late At Night
DYEAR=2006
DGENRE=Blues
TTITLE0=This Wonderful Day
TTITLE1=Got The Blues Again
TTITLE2=The Opressor
TTITLE3=Bad Bad Woman
TTITLE4=Heat Of The Night
TTITLE5=Slow Moving Train
TTITLE6=On Your Mind
TTITLE7=I Love My Baby
TTITLE8=Late At Night (Midnight Blues)
TTITLE9=Blues For Dee
TTITLE10=Abstain Blues - Lake Divine
TTITLE11=You've Go To
EXTD=YEAR: 2006
EXTT0=
EXTT1=
EXTT2=
EXTT3=
EXTT4=
EXTT5=
EXTT6=
EXTT7=
EXTT8=
EXTT9=
EXTT10=
EXTT11=
PLAYORDER=
